HIERARCHY
ROOT Hips
{
    OFFSET 0.000000 0.000000 0.000000
    CHANNELS 6 Xposition Yposition Zposition Zrotation Xrotation Yrotation
    JOINT Spine
    {
        OFFSET -0.000000 8.603107 0.000000
        CHANNELS 3 Zrotation Xrotation Yrotation
        JOINT Spine1
        {
            OFFSET -0.000000 23.906662 0.000000
            CHANNELS 3 Zrotation Xrotation Yrotation
            JOINT Neck
            {
                OFFSET -0.000000 23.808481 2.164407
                CHANNELS 3 Zrotation Xrotation Yrotation
                JOINT Head
                {
                    OFFSET -0.000000 14.688231 -2.098319
                    CHANNELS 3 Zrotation Xrotation Yrotation
                    End Site
                    {
                        OFFSET -0.000000 26.228985 0.000000
                    }
                }
            }
            JOINT LeftShoulder
            {
                OFFSET 4.178941 22.658146 -0.129871
                CHANNELS 3 Zrotation Xrotation Yrotation
                JOINT LeftArm
                {
                    OFFSET 9.497952 0.000000 0.000000
                    CHANNELS 3 Zrotation Xrotation Yrotation
                    JOINT LeftForeArm
                    {
                        OFFSET 38.855015 0.000000 0.000000
                        CHANNELS 3 Zrotation Xrotation Yrotation
                        JOINT LeftHand
                        {
                            OFFSET 24.940550 0.000000 0.000000
                            CHANNELS 3 Zrotation Xrotation Yrotation
                            End Site
                            {
                                OFFSET 15.737392 0.000000 0.000000
                            }
                        }
                    }
                }
            }
            JOINT RightShoulder
            {
                OFFSET -4.145384 22.658146 -0.129871
                CHANNELS 3 Zrotation Xrotation Yrotation
                JOINT RightArm
                {
                    OFFSET -9.497952 0.000000 0.000000
                    CHANNELS 3 Zrotation Xrotation Yrotation
                    JOINT RightForeArm
                    {
                        OFFSET -38.855015 0.000000 0.000000
                        CHANNELS 3 Zrotation Xrotation Yrotation
                        JOINT RightHand
                        {
                            OFFSET -24.940550 0.000000 0.000000
                            CHANNELS 3 Zrotation Xrotation Yrotation
                            End Site
                            {
                                OFFSET -15.737392 0.000000 0.000000
                            }
                        }
                    }
                }
            }
        }
    }
    JOINT LeftUpLeg
    {
        OFFSET 10.491594 0.000000 0.000000
        CHANNELS 3 Zrotation Xrotation Yrotation
        JOINT LeftLeg
        {
            OFFSET -0.000000 -46.080647 0.000000
            CHANNELS 3 Zrotation Xrotation Yrotation
            JOINT LeftFoot
            {
                OFFSET -0.000000 -50.184704 0.000000
                CHANNELS 3 Zrotation Xrotation Yrotation
                JOINT LeftToeBase
                {
                    OFFSET -0.000000 -6.819536 15.737392
                    CHANNELS 3 Zrotation Xrotation Yrotation
                    End Site
                    {
                        OFFSET -0.000000 0.000000 4.196638
                    }
                }
            }
        }
    }
    JOINT RightUpLeg
    {
        OFFSET -10.491594 0.000000 0.000000
        CHANNELS 3 Zrotation Xrotation Yrotation
        JOINT RightLeg
        {
            OFFSET -0.000000 -46.080647 0.000000
            CHANNELS 3 Zrotation Xrotation Yrotation
            JOINT RightFoot
            {
                OFFSET -0.000000 -50.184704 0.000000
                CHANNELS 3 Zrotation Xrotation Yrotation
                JOINT RightToeBase
                {
                    OFFSET -0.000000 -6.819536 15.737392
                    CHANNELS 3 Zrotation Xrotation Yrotation
                    End Site
                    {
                        OFFSET -0.000000 0.000000 4.196638
                    }
                }
            }
        }
    }
}
MOTION
Frames:    11
Frame Time:    0.008333
-8.999144    103.197624    40.520428    1.006451    0.155681    92.628326    0.763463    -5.309098    -0.206680    -2.166902    -3.035199    -0.299748    6.400333    15.809669    1.321343    0.011269    2.546962    1.349630    15.656099    -4.306946    -10.486760    -16.434465    -0.770324    6.496268    0.379071    0.093899    -0.448629    -1.636011    0.037302    4.060833    -15.528854    -1.682055    -7.106294    15.987082    -4.019092    2.804591    -0.854797    -4.850081    -0.727942    -3.143514    -4.768116    -3.194920    -0.549834    1.144625    0.077344    -2.997166    10.075500    0.294335    2.563200    -9.435266    14.388504    0.000000    0.000000    0.000000    -0.623498    5.532914    -2.755133    2.395628    0.406205    -0.626719    -1.209385    -4.678881    -10.870847    0.000000    0.000000    0.000000    
-8.999295    103.198242    40.521900    1.011111    0.157603    92.631538    0.754322    -5.301177    -0.201015    -2.152908    -3.044307    -0.293245    6.501078    15.835759    1.311376    -0.179877    2.558677    1.317294    15.624127    -4.416638    -10.542963    -16.417150    -0.732548    6.584257    0.389905    0.089028    -0.476773    -1.634463    0.032907    4.034900    -15.545649    -1.667795    -7.124114    15.979532    -3.993095    2.800352    -0.845609    -4.875052    -0.722372    -3.144758    -4.791633    -3.242820    -0.553563    1.153489    0.019450    -3.000511    10.063588    0.339171    2.554069    -9.440725    14.399264    0.000000    0.000000    0.000000    -0.625202    5.539178    -2.741020    2.397194    0.398761    -0.651262    -1.182773    -4.675384    -10.862457    0.000000    0.000000    0.000000    
-8.998294    103.200356    40.527176    1.014225    0.153862    92.639122    0.758403    -5.314520    -0.200945    -2.166155    -3.015635    -0.293376    6.379899    15.812677    1.310151    0.053369    2.580533    1.343362    15.645034    -4.413300    -10.524818    -16.410761    -0.749562    6.561007    0.403146    0.060881    -0.475395    -1.643438    0.005363    4.033871    -15.553112    -1.689122    -7.136013    15.982569    -3.954751    2.791881    -0.860652    -4.931852    -0.709842    -3.135555    -4.845960    -3.343295    -0.545865    1.153756    0.005074    -3.002942    10.067279    0.333153    2.517741    -9.448342    14.411401    0.000000    0.000000    0.000000    -0.609538    5.541717    -2.780810    2.383739    0.399623    -0.639831    -1.187762    -4.666811    -10.843114    0.000000    0.000000    0.000000    
-9.001082    103.199852    40.529083    1.010053    0.155967    92.643990    0.754461    -5.309784    -0.201160    -2.161263    -3.033833    -0.293625    6.382652    15.833053    1.312092    0.031603    2.579659    1.343957    15.636477    -4.411461    -10.527745    -16.404177    -0.722201    6.564839    0.411273    0.024434    -0.482421    -1.596292    -0.030155    4.032419    -15.561563    -1.661020    -7.134417    15.972100    -3.875428    2.780588    -0.846126    -4.991169    -0.725451    -3.193936    -4.906188    -3.251140    -0.547298    1.148887    0.001120    -3.002395    10.059282    0.332052    2.509423    -9.445408    14.415628    0.000000    0.000000    0.000000    -0.610857    5.543040    -2.769220    2.383985    0.390871    -0.644584    -1.183062    -4.670553    -10.855894    0.000000    0.000000    0.000000    
-9.003478    103.200027    40.530205    1.001875    0.158998    92.645355    0.741792    -5.317419    -0.193045    -2.143918    -3.035620    -0.284389    6.369459    15.831036    1.307168    0.042119    2.597300    1.340043    15.629108    -4.399206    -10.548238    -16.400949    -0.698827    6.569332    0.424983    -0.001799    -0.483913    -1.580720    -0.057814    4.020980    -15.583211    -1.650382    -7.143107    15.970519    -3.876892    2.761616    -0.861054    -5.023388    -0.717215    -3.187447    -4.937982    -3.274067    -0.549269    1.135892    -0.000836    -3.004398    10.066076    0.349489    2.524985    -9.448764    14.405061    0.000000    0.000000    0.000000    -0.617806    5.534429    -2.752835    2.394561    0.391996    -0.651027    -1.185113    -4.672685    -10.868744    0.000000    0.000000    0.000000    
-9.005755    103.201523    40.532448    0.995945    0.160047    92.645096    0.760887    -5.322906    -0.192552    -2.186400    -3.033875    -0.285872    6.407264    15.832244    1.325923    0.009403    2.605131    1.355516    15.667234    -4.391332    -10.535013    -16.413404    -0.615233    6.566432    0.441123    -0.028037    -0.483918    -1.645280    -0.084339    4.007601    -15.573918    -1.660676    -7.149531    15.967927    -3.844098    2.760700    -0.865228    -5.064799    -0.719643    -3.238585    -4.977897    -3.276947    -0.547474    1.128706    0.009096    -3.004622    10.066304    0.317270    2.515579    -9.446407    14.424775    0.000000    0.000000    0.000000    -0.611662    5.507221    -2.769337    2.377306    0.423576    -0.695351    -1.160490    -4.687253    -10.798010    0.000000    0.000000    0.000000    
-9.009197    103.202148    40.533794    0.985170    0.162699    92.648308    0.749680    -5.330605    -0.190866    -2.172915    -3.038220    -0.283300    6.532521    15.838918    1.337805    -0.217752    2.613213    1.340456    15.669743    -4.385652    -10.551764    -16.403881    -0.790801    6.553604    0.472772    0.090041    -0.407789    -1.678854    0.034469    3.950712    -15.582147    -1.657466    -7.165974    15.956963    -3.827363    2.769328    -0.866770    -5.091070    -0.744063    -3.289167    -5.004199    -3.232428    -0.551868    1.111873    0.012219    -2.997928    10.070826    0.331811    2.493459    -9.450353    14.395668    0.000000    0.000000    0.000000    -0.616117    5.493903    -2.775542    2.379700    0.429632    -0.680182    -1.179395    -4.690255    -10.807053    0.000000    0.000000    0.000000    
-9.009247    103.202042    40.536072    0.986456    0.157734    92.649467    0.759727    -5.328887    -0.193422    -2.175084    -3.039923    -0.286648    6.385909    15.835334    1.355155    0.014412    2.624538    1.386787    15.670228    -4.384962    -10.536959    -16.410110    -0.504433    6.587681    0.429806    -0.001843    -0.490206    -1.647934    -0.067180    4.008425    -15.607014    -1.669940    -7.167960    15.962734    -3.790819    2.770087    -0.875686    -5.107373    -0.750166    -3.311555    -5.020712    -3.207156    -0.545754    1.109390    0.023964    -2.995550    10.078683    0.316271    2.472640    -9.459740    14.399592    0.000000    0.000000    0.000000    -0.616720    5.510279    -2.769210    2.397213    0.404626    -0.644095    -1.190946    -4.668914    -10.856090    0.000000    0.000000    0.000000    
-9.010762    103.201805    40.538002    0.988595    0.157364    92.642746    0.764085    -5.327838    -0.189997    -2.187839    -3.030738    -0.283650    6.403976    15.826268    1.366850    -0.006340    2.631304    1.395846    15.708946    -4.387706    -10.528280    -16.426785    -0.456140    6.592864    0.427265    0.029506    -0.474306    -1.717557    -0.028523    3.996645    -15.601042    -1.685976    -7.183111    15.943530    -3.737331    2.776615    -0.878560    -5.111617    -0.742031    -3.252517    -5.026733    -3.201184    -0.541700    1.110332    0.014156    -3.004133    10.082638    0.324492    2.473991    -9.461188    14.406886    0.000000    0.000000    0.000000    -0.618631    5.508729    -2.741179    2.401899    0.407395    -0.652863    -1.191235    -4.672835    -10.869933    0.000000    0.000000    0.000000    
-9.013782    103.201805    40.540020    0.979567    0.158935    92.635735    0.765488    -5.325699    -0.187985    -2.189845    -3.054015    -0.282064    6.521762    15.858381    1.387224    -0.226730    2.606597    1.392017    15.718142    -4.378957    -10.522949    -16.422550    -0.456233    6.599584    0.426356    0.055946    -0.463455    -1.758472    -0.003816    4.001064    -15.611992    -1.679917    -7.178364    15.938430    -3.732931    2.776332    -0.929244    -5.014543    -0.791689    -2.745955    -4.950359    -2.955693    -0.543581    1.097690    0.004395    -3.003914    10.089846    0.337075    2.484115    -9.461909    14.408276    0.000000    0.000000    0.000000    -0.624839    5.490444    -2.723345    2.411876    0.418798    -0.659828    -1.201787    -4.679667    -10.874460    0.000000    0.000000    0.000000    
-9.015215    103.199638    40.540268    0.985452    0.158605    92.621452    0.769694    -5.315499    -0.182320    -2.195016    -3.061062    -0.276638    6.530508    15.886467    1.397173    -0.244488    2.568271    1.401899    15.728009    -4.385733    -10.517860    -16.409250    -0.470594    6.603084    0.446396    -0.001660    -0.425197    -1.821834    -0.054105    3.951652    -15.617072    -1.664190    -7.172306    15.933425    -3.741886    2.779808    -0.937266    -4.981604    -0.800238    -2.699621    -4.919435    -2.925174    -0.541308    1.103799    0.007044    -3.005658    10.090898    0.315773    2.479104    -9.465622    14.431442    0.000000    0.000000    0.000000    -0.621231    5.489651    -2.727799    2.403908    0.428595    -0.661250    -1.203991    -4.683357    -10.856442    0.000000    0.000000    0.000000    
